<?xml version="1.0" standalone="no"?><!DOCTYPE svg PUBLIC "-//W3C//DTD SVG 1.1//EN" "http://www.w3.org/Graphics/SVG/1.1/DTD/svg11.dtd"><svg class="icon" width="200px" height="200.00px" viewBox="0 0 1024 1024" version="1.1" xmlns="http://www.w3.org/2000/svg"><path fill="#333333" d="M484.932016 187.17396c14.722306-31.228235 38.818097-31.228235 53.538357 0l63.772442 135.237077c14.721283 31.225165 54.809303 61.039191 89.064478 66.246797l137.750317 20.945031c34.254152 5.206582 42.479487 29.66974 18.286482 54.360072l-101.8292 103.877859c-24.211425 24.692379-39.442314 72.752977-33.865295 106.795305l24.530696 149.630902c5.578042 34.048467-14.669094 48.249911-45.000913 31.556717l-124.33375-68.417229c-30.331819-16.685008-79.960123-16.685008-110.291942 0l-124.340913 68.417229c-30.324656 16.693194-50.582025 2.492774-44.99682-31.556717l24.51637-149.630902c5.585205-34.043351-9.655917-82.10395-33.858132-106.795305l-101.81078-103.875812c-24.202215-24.690332-15.97688-49.154513 18.283412-54.361095l137.747247-20.945031c34.260292-5.206582 74.340125-35.021631 89.062432-66.246797L484.932016 187.17396z" /></svg>